<svg width="364" height="129" viewBox="0 0 364 129" fill="none" xmlns="http://www.w3.org/2000/svg">
<g filter="url(#filter0_d_6991_1381)">
<circle cx="66" cy="62.5" r="40" fill="url(#paint0_linear_6991_1381)"/>
</g>
<path d="M144.321 99V26.2727H173.014C178.507 26.2727 183.194 27.2552 187.077 29.2202C190.983 31.1615 193.954 33.9195 195.99 37.4943C198.05 41.0455 199.08 45.224 199.08 50.0298C199.08 54.8594 198.038 59.0142 195.955 62.4943C193.871 65.9508 190.853 68.6023 186.899 70.4489C182.969 72.2955 178.211 73.2188 172.624 73.2188H153.412V60.8608H170.138C173.073 60.8608 175.512 60.4583 177.453 59.6534C179.394 58.8485 180.839 57.6411 181.786 56.0312C182.756 54.4214 183.241 52.4209 183.241 50.0298C183.241 47.6151 182.756 45.5791 181.786 43.9219C180.839 42.2647 179.383 41.0099 177.418 40.1577C175.476 39.2817 173.026 38.8438 170.067 38.8438H159.697V99H144.321ZM183.597 65.9034L201.672 99H184.697L167.013 65.9034H183.597ZM233.428 100.065C227.912 100.065 223.141 98.8935 219.117 96.5497C215.116 94.1823 212.026 90.8916 209.848 86.6776C207.67 82.4399 206.581 77.5275 206.581 71.9403C206.581 66.3059 207.67 61.3816 209.848 57.1676C212.026 52.9299 215.116 49.6392 219.117 47.2955C223.141 44.928 227.912 43.7443 233.428 43.7443C238.944 43.7443 243.703 44.928 247.703 47.2955C251.728 49.6392 254.829 52.9299 257.007 57.1676C259.185 61.3816 260.275 66.3059 260.275 71.9403C260.275 77.5275 259.185 82.4399 257.007 86.6776C254.829 90.8916 251.728 94.1823 247.703 96.5497C243.703 98.8935 238.944 100.065 233.428 100.065ZM233.499 88.3466C236.008 88.3466 238.104 87.6364 239.784 86.2159C241.465 84.7718 242.732 82.8068 243.584 80.321C244.46 77.8352 244.898 75.0062 244.898 71.8338C244.898 68.6615 244.46 65.8324 243.584 63.3466C242.732 60.8608 241.465 58.8958 239.784 57.4517C238.104 56.0076 236.008 55.2855 233.499 55.2855C230.966 55.2855 228.835 56.0076 227.107 57.4517C225.402 58.8958 224.112 60.8608 223.236 63.3466C222.384 65.8324 221.958 68.6615 221.958 71.8338C221.958 75.0062 222.384 77.8352 223.236 80.321C224.112 82.8068 225.402 84.7718 227.107 86.2159C228.835 87.6364 230.966 88.3466 233.499 88.3466ZM270.111 99V44.4545H284.777V53.9716H285.346C286.34 50.5862 288.009 48.0294 290.353 46.3011C292.696 44.5492 295.395 43.6733 298.449 43.6733C299.207 43.6733 300.024 43.7206 300.9 43.8153C301.775 43.91 302.545 44.0402 303.208 44.206V57.6293C302.498 57.4162 301.515 57.2268 300.26 57.0611C299.006 56.8954 297.857 56.8125 296.816 56.8125C294.59 56.8125 292.602 57.2978 290.85 58.2685C289.122 59.2154 287.748 60.5412 286.73 62.2457C285.736 63.9503 285.239 65.9152 285.239 68.1406V99H270.111ZM324.737 83.304L324.772 65.1577H326.974L344.445 44.4545H361.81L338.337 71.8693H334.751L324.737 83.304ZM311.029 99V26.2727H326.157V99H311.029ZM345.12 99L329.069 75.2429L339.154 64.554L362.84 99H345.12Z" fill="white"/>
<defs>
<filter id="filter0_d_6991_1381" x="0" y="0.5" width="128" height="128" filterUnits="userSpaceOnUse" color-interpolation-filters="sRGB">
<feFlood flood-opacity="0" result="BackgroundImageFix"/>
<feColorMatrix in="SourceAlpha" type="matrix" values="0 0 0 0 0 0 0 0 0 0 0 0 0 0 0 0 0 0 127 0" result="hardAlpha"/>
<feMorphology radius="4" operator="dilate" in="SourceAlpha" result="effect1_dropShadow_6991_1381"/>
<feOffset dx="-2" dy="2"/>
<feGaussianBlur stdDeviation="10"/>
<feComposite in2="hardAlpha" operator="out"/>
<feColorMatrix type="matrix" values="0 0 0 0 1 0 0 0 0 1 0 0 0 0 1 0 0 0 0.1 0"/>
<feBlend mode="normal" in2="BackgroundImageFix" result="effect1_dropShadow_6991_1381"/>
<feBlend mode="normal" in="SourceGraphic" in2="effect1_dropShadow_6991_1381" result="shape"/>
</filter>
<linearGradient id="paint0_linear_6991_1381" x1="66" y1="22.5" x2="66" y2="102.5" gradientUnits="userSpaceOnUse">
<stop stop-color="white"/>
<stop offset="1" stop-color="#D1D1D1"/>
</linearGradient>
</defs>
</svg>
